<svg xmlns="http://www.w3.org/2000/svg" width="820" height="657" version="1.1"><path fill="#010101" d="M0 0 C16.13995069 15.82485403 25.96646122 40.62771817 35.97161865 60.6907959 C38.54247529 65.84354974 41.131136 70.98709992 43.72698975 76.12730408 C45.77763932 80.18983458 47.82287045 84.25508201 49.86767578 88.32055664 C50.92647414 90.42283948 51.98739497 92.52405451 53.05029297 94.62426758 C54.60161639 97.69074367 56.14530376 100.76095699 57.6875 103.83203125 C58.16550049 104.77254837 58.64350098 105.71306549 59.13598633 106.68208313 C59.57064209 107.55116806 60.00529785 108.42025299 60.453125 109.31567383 C60.83758789 110.07793777 61.22205078 110.84020172 61.61816406 111.62556458 C62.4375 113.625 62.4375 113.625 62.4375 116.625 C60.52892165 116.62939968 60.52892165 116.62939968 58.58178616 116.63388824 C28.28233511 116.70550945 -2.01665805 116.81830192 -32.31574726 116.9808419 C-36.05644389 117.00087345 -39.79714224 117.02056228 -43.5378418 117.04003906 C-44.28245296 117.04392181 -45.02706413 117.04780455 -45.79423928 117.05180496 C-57.80318965 117.11361054 -69.81206386 117.14774027 -81.8211431 117.17138845 C-94.17137489 117.19633407 -106.52121114 117.25160939 -118.87119287 117.33422613 C-126.47341787 117.3841507 -134.07498571 117.41126028 -141.67737692 117.40785915 C-147.53672689 117.40779181 -153.39521772 117.45020741 -159.25426102 117.50733566 C-161.63596496 117.5241864 -164.01780906 117.52793522 -166.39954567 117.51660538 C-192.81358323 117.40782184 -217.78324442 125.629381 -237.5625 143.625 C-238.53832031 144.50800781 -239.51414063 145.39101562 -240.51953125 146.30078125 C-258.42104454 163.04389484 -270.31536204 187.1829559 -271.15107727 211.68788147 C-271.19063988 212.74331369 -271.23020249 213.7987459 -271.27096397 214.88616091 C-271.64539595 225.60984717 -271.71087298 236.32728611 -271.70776367 247.05639648 C-271.71076768 249.17698219 -271.71417297 251.29756737 -271.71794128 253.41815186 C-271.72665555 259.09798313 -271.72911389 264.77779928 -271.72975707 270.45763659 C-271.73047434 274.02390936 -271.73262118 277.59017843 -271.73525429 281.15645027 C-271.74446333 293.64735274 -271.74859444 306.13824464 -271.74780273 318.62915039 C-271.74720189 330.19554732 -271.75776658 341.76189763 -271.7735464 353.32828277 C-271.78669479 363.32907687 -271.79198365 373.32985584 -271.79134732 383.3306585 C-271.79109465 389.27292505 -271.79381731 395.21514998 -271.80452538 401.15740776 C-272.01953964 429.83410521 -272.01953964 429.83410521 -270.7355957 458.46899414 C-270.63179863 459.82382353 -270.63179863 459.82382353 -270.52590466 461.20602322 C-269.64357328 470.42592131 -267.56086785 479.37574203 -263.3125 487.625 C-260.49092324 493.10692057 -260.49092324 493.10692057 -260.890625 496 C-261.11234375 496.53625 -261.3340625 497.0725 -261.5625 497.625 C-282.75896635 500.45119551 -300.66898572 496.36262769 -318.359375 484.296875 C-326.50392078 477.89519498 -331.41736387 469.92794137 -335.9375 460.75 C-336.96521271 458.71046704 -337.99388964 456.6714197 -339.0234375 454.6328125 C-339.54496902 453.59176361 -340.06650055 452.55071472 -340.60383606 451.4781189 C-342.33446902 448.05117478 -344.12179572 444.65633491 -345.92027187 441.26460648 C-351.62278234 430.50845574 -357.12008151 419.65709105 -362.55859375 408.765625 C-363.48190433 406.91968088 -364.40533342 405.07379603 -365.32887268 403.22796631 C-367.2486212 399.38992876 -369.16695241 395.55118727 -371.08422852 391.71191406 C-373.5063715 386.86194565 -375.93212492 382.01379346 -378.35885048 377.16611671 C-395.90375644 342.11165195 -395.90375644 342.11165195 -404.17016602 324.65039062 C-406.7726763 319.15933845 -409.45245166 313.70733242 -412.140625 308.2578125 C-413.07649814 306.35945675 -414.01237054 304.46110063 -414.94824219 302.56274414 C-415.41661499 301.61271515 -415.88498779 300.66268616 -416.36755371 299.68386841 C-423.87560348 284.43926714 -431.29633296 269.1656088 -438.3125 253.6875 C-438.61869263 253.01358215 -438.92488525 252.33966431 -439.24035645 251.64532471 C-448.05596784 232.19713924 -451.89401979 215.26516305 -444.5625 194.625 C-437.43647602 176.26763917 -425.50536029 165.68865418 -408.19140625 157.26171875 C-407.22959946 156.78483109 -406.26779266 156.30794342 -405.27684021 155.81660461 C-402.22997174 154.30750889 -399.17784664 152.80945944 -396.125 151.3125 C-392.1245217 149.34083339 -388.12632093 147.36458828 -384.12890625 145.38671875 C-383.15312622 144.9046698 -382.17734619 144.42262085 -381.17199707 143.92596436 C-373.27462794 140.01126187 -365.46440149 135.9456407 -357.68383789 131.80444336 C-347.57976671 126.43338844 -337.2862775 121.46469924 -326.91967773 116.62451172 C-320.83736318 113.77640514 -314.82666945 110.79870849 -308.83044434 107.77433777 C-305.06922158 105.87879989 -301.30328056 103.99287282 -297.53540039 102.1105957 C-290.87669364 98.78298125 -284.22001361 95.45133512 -277.56420898 92.11791992 C-267.6304184 87.14294508 -257.69568301 82.16986088 -247.76032925 77.19800854 C-241.79044979 74.21046424 -235.8209478 71.22217188 -229.85229492 68.23217773 C-224.01862953 65.30984669 -218.18394172 62.38956597 -212.34858894 59.47060585 C-210.15390697 58.37235524 -207.95957129 57.27341225 -205.76562309 56.17369652 C-193.69362358 50.12320379 -181.59143557 44.15080638 -169.3916769 38.36146069 C-160.8824195 34.32233299 -152.4610593 30.11576719 -144.04959106 25.87756348 C-131.77278593 19.69464644 -119.49120118 13.52846126 -107.05810547 7.66430664 C-102.1461708 5.3463304 -97.25642904 2.98959171 -92.38786316 0.58206177 C-89.39911567 -0.89586307 -86.40699643 -2.36690556 -83.41500854 -3.83825684 C-81.9498602 -4.5612863 -80.48636485 -5.2876768 -79.02468872 -6.0177002 C-53.70840212 -18.65662372 -22.80420145 -18.68616119 0 0 Z" transform="translate(458.5625,54.375)"/><path fill="#020202" d="M0 0 C1.67118537 -0.00688878 3.34236913 -0.01417831 5.01355118 -0.02183187 C9.58716789 -0.04146562 14.1607845 -0.05491142 18.73442614 -0.0671804 C22.66191846 -0.07849319 26.58939395 -0.0934121 30.51687408 -0.1083035 C67.75988544 -0.24900453 105.00327971 -0.31468519 142.24650669 -0.36762428 C147.09133484 -0.37463253 151.9361628 -0.38175963 156.7809906 -0.38900757 C157.98506591 -0.39080286 159.18914121 -0.39259815 160.42970365 -0.39444785 C179.93369687 -0.42451317 199.43742075 -0.48928901 218.9412731 -0.56769402 C238.98695612 -0.64760806 259.03249971 -0.69331853 279.07833904 -0.70665014 C290.32484428 -0.71504446 301.5708712 -0.73867905 312.81721687 -0.80131912 C322.39463308 -0.85463701 331.97150344 -0.87723547 341.54906369 -0.86020894 C346.43056042 -0.85248584 351.31088456 -0.85906062 356.19219208 -0.90549088 C360.67196149 -0.94776484 365.14975165 -0.94747753 369.62958466 -0.91506068 C371.23930115 -0.91060702 372.8491522 -0.92100484 374.45863468 -0.94881077 C391.2304675 -1.22095753 404.39590196 6.09627395 416.6235199 17.2940979 C430.88594388 31.20090958 435.64771341 46.50075771 436.11961365 65.9034729 C436.15763614 67.26033298 436.19576039 68.61719021 436.23397827 69.9740448 C436.65725835 86.05382856 436.613193 102.13839394 436.56718445 118.22232056 C436.55482668 123.02545581 436.55050867 127.8286052 436.54473114 132.63175201 C436.53524662 139.81480132 436.51600637 146.99776247 436.4985199 154.18081665 C425.2785199 154.18081665 414.0585199 154.18081665 402.4985199 154.18081665 C400.70346496 148.79565184 401.4985199 142.85727877 401.4985199 137.18081665 C258.2785199 137.18081665 115.0585199 137.18081665 -32.5014801 137.18081665 C-32.0064801 206.48081665 -32.0064801 206.48081665 -25.38038635 321.4581604 C-24.61597229 322.00601196 -23.85155823 322.55386353 -23.0639801 323.11831665 C-22.30214417 323.68421509 -21.54030823 324.25011353 -20.75538635 324.8331604 C-10.18914167 331.15093235 8.41730685 328.37906526 20.4125824 328.46206665 C22.54606403 328.48000843 24.67954278 328.49829511 26.8130188 328.51689148 C32.68078382 328.56672837 38.54858014 328.61063989 44.41640091 328.65333939 C49.40204018 328.69029308 54.38765059 328.7305825 59.37326527 328.77069569 C135.74727518 329.38218487 212.12325382 329.76459173 288.4985199 330.18081665 C288.4985199 343.71081665 288.4985199 357.24081665 288.4985199 371.18081665 C253.86542717 371.20351027 219.23233709 371.22137305 184.59923851 371.23188198 C180.49331862 371.23313241 176.38739875 371.23442676 172.28147888 371.23574829 C171.0555618 371.23614176 171.0555618 371.23614176 169.80487872 371.23654317 C156.64057144 371.24087262 143.47626862 371.24874489 130.31196397 371.25796945 C116.76409588 371.26738229 103.21623009 371.27288826 89.66835886 371.27490515 C81.33542998 371.27626467 73.00251369 371.28052863 64.66958869 371.28873312 C58.92445786 371.29409515 53.17933336 371.29559994 47.43420022 371.29431803 C44.1392879 371.2936891 40.84441444 371.29510252 37.54950333 371.30002213 C24.30094494 371.31880275 11.05811609 371.22364791 -2.18563174 370.85819434 C-4.17232702 370.80431687 -6.15922431 370.75805646 -8.14611727 370.71204287 C-27.724245 370.10284056 -43.91562183 362.55878327 -57.5014801 348.18081665 C-69.69144706 333.44115541 -73.63319682 317.98944485 -73.6688385 299.33558655 C-73.67752858 297.74839997 -73.67752858 297.74839997 -73.68639421 296.12914902 C-73.70435905 292.60137261 -73.71529739 289.073612 -73.72608948 285.54580688 C-73.73727321 283.00889444 -73.74878679 280.47198342 -73.76060486 277.93507385 C-73.79706004 269.61987299 -73.82244483 261.30465862 -73.8452301 252.9894104 C-73.847205 252.28106746 -73.8491799 251.57272452 -73.85121465 250.84291664 C-73.89040212 236.75237922 -73.92404106 222.66183244 -73.94629669 208.57125759 C-73.95126511 205.47976608 -73.95630957 202.3882747 -73.96144104 199.29678345 C-73.96271171 198.52851009 -73.96398238 197.76023673 -73.96529156 196.96868236 C-73.98663783 184.53186756 -74.03562991 172.09531746 -74.09568518 159.65863573 C-74.15696454 146.86201596 -74.19150645 134.06553245 -74.2007699 121.26876789 C-74.20665899 114.09509666 -74.22419887 106.92187462 -74.27215576 99.74835014 C-74.31726274 92.99542262 -74.32626316 86.24337998 -74.31152725 79.49027443 C-74.31185459 77.02167977 -74.32402711 74.55305162 -74.34937668 72.0845871 C-74.57277697 49.10492442 -69.30026271 34.3213078 -53.1889801 17.43081665 C-37.05770361 1.81199784 -21.46168292 0.04358638 0 0 Z M-27.6577301 49.72769165 C-28.1011676 50.4547229 -28.5446051 51.18175415 -29.0014801 51.93081665 C-29.4655426 52.6681604 -29.9296051 53.40550415 -30.4077301 54.16519165 C-33.98950824 60.76589707 -32.5014801 64.05520822 -32.5014801 73.18081665 C111.0485199 73.18081665 254.5985199 73.18081665 402.4985199 73.18081665 C400.87793275 57.66370057 400.87793275 57.66370057 392.8110199 45.18081665 C383.51707918 39.56938075 371.44753417 40.74588462 360.91966248 40.57730103 C359.47045172 40.55003197 359.47045172 40.55003197 357.99196398 40.52221203 C322.9213627 39.86347163 287.83577484 39.90957367 252.76023865 39.83706665 C251.81451934 39.83509175 250.86880003 39.83311685 249.89442256 39.83108211 C231.02422219 39.79192542 212.15401376 39.75846203 193.28378582 39.73600006 C189.18470944 39.73103387 185.08563318 39.7259889 180.98655701 39.72085571 C179.9682157 39.71958504 178.94987439 39.71831437 177.90067426 39.71700519 C161.2906086 39.69550067 144.68073647 39.64629939 128.07076886 39.58661157 C110.92585317 39.52551562 93.78103837 39.49082265 76.63601524 39.48152685 C67.04474916 39.47562896 57.45381818 39.45798937 47.86266136 39.41014099 C39.72934231 39.3695886 31.59641403 39.3526471 23.46299829 39.36679381 C19.3195726 39.37326014 15.17698051 39.36841887 11.03368378 39.33292007 C7.23936947 39.30066892 3.44647605 39.30095569 -0.3478749 39.32673711 C-2.36319517 39.33209794 -4.37851723 39.30303463 -6.39361459 39.27258539 C-16.2176159 39.39087296 -21.37272182 42.30409492 -27.6577301 49.72769165 Z" transform="translate(294.50148010253906,209.81918334960938)"/><path fill="#010101" d="M0 0 C1.50306702 -0.01925285 1.50306702 -0.01925285 3.03649902 -0.03889465 C4.11564575 -0.04628159 5.19479248 -0.05366852 6.30664062 -0.0612793 C7.42671509 -0.06935104 8.54678955 -0.07742279 9.70080566 -0.08573914 C12.07460997 -0.09956934 14.44843407 -0.11029625 16.82226562 -0.11816406 C19.23508585 -0.12965214 21.64788129 -0.1500531 24.06054688 -0.1796875 C27.55941931 -0.22265527 31.05753606 -0.23857696 34.55664062 -0.2487793 C36.15106995 -0.27504143 36.15106995 -0.27504143 37.77770996 -0.30183411 C54.60002078 -0.25392538 67.27249546 7.69027221 78.96289062 19.17700195 C79.79433594 19.98911133 79.79433594 19.98911133 80.64257812 20.81762695 C85.88010023 26.42319116 89.33645494 33.471363 92.96289062 40.17700195 C93.35863281 40.80219727 93.754375 41.42739258 94.16210938 42.0715332 C95.46860666 45.50666509 95.40580566 49.04439196 95.52539062 52.67700195 C95.56801025 53.58321289 95.61062988 54.48942383 95.65454102 55.4230957 C95.91579679 61.71306406 95.9685064 67.97750911 95.91365051 74.27160645 C95.88519254 78.23750563 95.89533227 82.20298632 95.90719604 86.16894531 C95.90266913 88.16988444 95.87989949 90.17086762 95.83865356 92.17138672 C95.07329202 103.11127737 95.07329202 103.11127737 99.10424805 112.68139648 C101.68479662 114.20759644 104.1312582 115.21530491 106.96289062 116.17700195 C109.58398438 118.23168945 109.58398438 118.23168945 111.40039062 120.05200195 C112.01785156 120.64754883 112.6353125 121.2430957 113.27148438 121.85668945 C117.59493364 127.787703 118.44858324 134.09434874 118.63867188 141.20825195 C118.67148758 142.09943726 118.70430328 142.99062256 118.7381134 143.90881348 C119.13526094 156.11273937 119.14990119 168.32705176 119.14819336 180.53637695 C119.14809083 184.00632102 119.16188636 187.47606466 119.17896557 190.945961 C119.19286513 194.3250603 119.19217555 197.70412456 119.19335938 201.08325195 C119.20054489 202.30645142 119.20773041 203.52965088 119.21513367 204.78991699 C119.18354459 216.82871408 118.93949738 227.64495688 110.96289062 237.17700195 C110.19976563 238.12575195 109.43664062 239.07450195 108.65039062 240.05200195 C98.70350743 247.91697936 83.65936794 246.32689905 71.68969727 246.32226562 C70.42135544 246.32562424 69.15301361 246.32898285 67.84623718 246.33244324 C64.404031 246.34118474 60.96184975 246.34361706 57.51963353 246.34425902 C55.36059966 246.34497483 53.20157193 246.34711901 51.0425396 246.34975624 C43.48677042 246.35897502 35.93101876 246.36309524 28.37524414 246.36230469 C21.36904905 246.3617039 14.36293094 246.37226484 7.35675532 246.38804835 C1.30794896 246.40118213 -4.7408324 246.40648619 -10.78965288 246.40584928 C-14.38764293 246.40559613 -17.98556432 246.40834538 -21.58353996 246.41902733 C-25.60058631 246.43063119 -29.61746282 246.42592597 -33.63452148 246.41992188 C-35.38758102 246.42835114 -35.38758102 246.42835114 -37.17605591 246.43695068 C-48.70527047 246.39343081 -60.12889821 246.30411736 -69.03710938 238.17700195 C-78.81824628 227.48263851 -77.19888594 212.63050234 -77.20507812 199.0949707 C-77.20829826 197.43264234 -77.21166288 195.77031425 -77.21516418 194.10798645 C-77.22112779 190.63415877 -77.22300693 187.16035587 -77.22241211 183.68652344 C-77.22231062 179.26554177 -77.23596174 174.84472116 -77.25318432 170.42377758 C-77.26437784 166.99281606 -77.26632908 163.56189259 -77.26580238 160.13091469 C-77.26697149 158.50245929 -77.27133211 156.87400254 -77.27913475 155.24556541 C-77.39875204 127.70560971 -77.39875204 127.70560971 -68.14257812 118.23950195 C-64.34667781 114.75569287 -60.67731628 112.44051752 -56.03710938 110.17700195 C-55.02450203 107.13917991 -54.8604631 104.93095118 -54.77172852 101.74682617 C-54.73821793 100.63491913 -54.70470734 99.52301208 -54.67018127 98.37741089 C-54.63786911 97.17432281 -54.60555695 95.97123474 -54.57226562 94.73168945 C-54.49370951 92.18480766 -54.41492622 89.63793287 -54.3359375 87.09106445 C-54.2155839 83.07555565 -54.09949598 79.05994109 -53.98754883 75.04418945 C-53.87743436 71.16892455 -53.75670943 67.29409768 -53.63476562 63.41918945 C-53.60447769 62.22824677 -53.57418976 61.03730408 -53.54298401 59.81027222 C-52.98818457 42.69812696 -47.17502896 28.46664553 -35.03710938 16.17700195 C-25.56296584 7.67180492 -13.08248316 0.14656543 0 0 Z M-14.41210938 40.42700195 C-21.49431885 49.63588056 -22.19183325 59.21379438 -22.16992188 70.4465332 C-22.1708786 71.52327805 -22.17183533 72.60002289 -22.17282104 73.70939636 C-22.17349964 75.97618671 -22.17166778 78.24297904 -22.16748047 80.50976562 C-22.16210152 83.99459127 -22.16744971 87.47928954 -22.17382812 90.96411133 C-22.1731678 93.16658557 -22.17188758 95.36905974 -22.16992188 97.5715332 C-22.17194611 98.61936478 -22.17397034 99.66719635 -22.17605591 100.7467804 C-22.17290375 101.70835556 -22.16975159 102.66993073 -22.16650391 103.66064453 C-22.16570831 104.51080643 -22.16491272 105.36096832 -22.16409302 106.2368927 C-22.25084847 108.18306767 -22.25084847 108.18306767 -21.03710938 109.17700195 C-18.4256065 109.27741653 -15.84052573 109.31317252 -13.22851562 109.30639648 C-12.41067596 109.3081488 -11.5928363 109.30990112 -10.75021362 109.31170654 C-8.03332427 109.3161258 -5.31649945 109.31318682 -2.59960938 109.30981445 C-0.72013334 109.31048747 1.15934262 109.31145748 3.03881836 109.31271362 C6.98324408 109.3141907 10.92764721 109.31203574 14.87207031 109.30737305 C19.94001565 109.30167575 25.00790804 109.30495471 30.07585144 109.31094551 C33.9584595 109.31455087 37.8410549 109.31341265 41.72366333 109.31081772 C43.59286505 109.31014838 45.46206791 109.31097711 47.33126831 109.31329727 C49.93897566 109.31582339 52.54659604 109.3119838 55.15429688 109.30639648 C56.32474045 109.30943283 56.32474045 109.30943283 57.51882935 109.31253052 C61.03366255 109.62172253 61.03366255 109.62172253 63.96289062 108.17700195 C64.07718282 106.57329706 64.12248489 104.96461175 64.13989258 103.35693359 C64.15272781 102.32818619 64.16556305 101.29943878 64.17878723 100.23951721 C64.18617416 99.11673874 64.1935611 97.99396027 64.20117188 96.8371582 C64.2132795 95.11027016 64.2132795 95.11027016 64.22563171 93.34849548 C64.23949921 90.90129106 64.25020936 88.45406707 64.25805664 86.00683594 C64.27517446 82.28648232 64.31902654 78.56703915 64.36328125 74.84692383 C64.37341613 72.46867515 64.38192974 70.09041891 64.38867188 67.7121582 C64.41493401 66.05531761 64.41493401 66.05531761 64.44172668 64.36500549 C64.41546458 54.87552497 62.26190348 46.77051572 55.66601562 39.70825195 C40.0505646 25.66867213 0.56264529 24.45145923 -14.41210938 40.42700195 Z M6.96289062 160.17700195 C4.44872885 164.4643094 4.16968783 168.30891418 4.96289062 173.17700195 C6.06014515 175.64779812 7.31618479 177.85779539 8.77148438 180.1340332 C10.67220906 183.39330864 11.07778988 186.49336371 11.17382812 190.22387695 C11.2021875 190.98700195 11.23054687 191.75012695 11.25976562 192.53637695 C11.3113311 194.11428044 11.35575075 195.69243571 11.39257812 197.27075195 C11.61586368 202.81567662 12.61733156 207.12201428 14.96289062 212.17700195 C17.68907437 214.08580065 17.68907437 214.08580065 20.96289062 214.17700195 C25.28905342 212.64788116 25.28905342 212.64788116 27.96289062 209.17700195 C28.11352401 207.48233079 28.21344343 205.78300902 28.28710938 204.08325195 C28.34705078 203.05200195 28.40699219 202.02075195 28.46875 200.95825195 C28.5880635 198.80291131 28.69016965 196.6465359 28.7734375 194.48950195 C29.21515987 187.55917819 30.66844849 182.96911121 34.59887695 177.21801758 C37.24582177 173.25731261 37.34466478 169.83464666 36.96289062 165.17700195 C35.23780017 159.38641169 32.32598628 155.92092832 27.04492188 153.02075195 C18.79458668 149.67727653 12.32399656 154.07129797 6.96289062 160.17700195 Z" transform="translate(691.037109375,395.822998046875)"/><path fill="#010101" d="M0 0 C0.83917969 0.61875 1.67835938 1.2375 2.54296875 1.875 C4.7201963 3.27544823 4.7201963 3.27544823 6.81640625 2.40234375 C9.90790868 0.23042717 12.95706012 -1.98537312 15.984375 -4.24609375 C22.70821606 -8.41598966 28.77281774 -9.53201423 36.625 -9.4375 C37.50575195 -9.42992676 38.38650391 -9.42235352 39.29394531 -9.41455078 C52.7465392 -9.07463832 61.45755541 -3.75214049 70.5625 5.8125 C79.28487709 15.78307933 80.54162499 26.05581056 79.98291016 38.87597656 C79.13431208 49.45305856 73.41516795 58.68464835 65.83203125 65.87890625 C57.23659911 72.72437017 48.38877883 75.18329959 37.625 75.25 C36.81224609 75.270625 35.99949219 75.29125 35.16210938 75.3125 C26.06831143 75.3703762 19.46149746 73.0404906 12.5 67.25 C9.04965185 64.04663909 9.04965185 64.04663909 4.73828125 63.02734375 C2.36779877 64.22460569 0.40897507 65.68074357 -1.6875 67.3125 C-13.10078106 75.38652415 -25.63541355 76.66684394 -39.1796875 74.52734375 C-49.21545027 71.91679487 -58.2599603 65.04515327 -63.8828125 56.390625 C-70.27830985 45.20622867 -72.46051074 33.49756693 -69.0625 20.75 C-67.19899667 15.38911602 -64.32931592 10.70008924 -61.1875 6 C-60.61 5.113125 -60.0325 4.22625 -59.4375 3.3125 C-42.29432734 -14.3068719 -19.26561349 -12.97217975 0 0 Z" transform="translate(358.1875,437)"/><path fill="#222" d="M0 0 C0.66 0.33 1.32 0.66 2 1 C-2.62 5.62 -7.24 10.24 -12 15 C-12 10.39852874 -9.10228152 8.19311408 -6 5 C-4.05341967 3.24193983 -2.06456557 1.62215867 0 0 Z" transform="translate(662,407)"/><path fill="#222" d="M0 0 C0.66 0.33 1.32 0.66 2 1 C-2.29 5.29 -6.58 9.58 -11 14 C-11 9.40845608 -8.09282279 7.18698368 -5 4 C-3.3719908 2.61973133 -1.71956118 1.26438322 0 0 Z" transform="translate(35,220)"/><path fill="#222" d="M0 0 C0.66 0.33 1.32 0.66 2 1 C-1.63 4.63 -5.26 8.26 -9 12 C-9 8.00102358 -7.64683965 6.93298448 -5 4 C-3.36643049 2.62631655 -1.7074998 1.28062485 0 0 Z" transform="translate(306,434)"/></svg>